<svg width="32" height="32" fill="none" xmlns="http://www.w3.org/2000/svg"><circle cx="16" cy="16" r="16" fill="#5C9C9A"/><path d="M24.569 11.58a6.81 6.81 0 01-.863 1.787l.015-.023a94.757 94.757 0 01-1.27 2.049c-.423.611-.646.928-.671.95-.11.137-.185.304-.212.489v.005a.71.71 0 00.212.424l.316.353c1.695 1.741 2.648 2.941 2.86 3.6a.705.705 0 01-.089.656l.001-.002a.764.764 0 01-.62.23h.003-2.087a1.12 1.12 0 01-.705-.25l.003.002c-.28-.23-.53-.48-.753-.75l-.007-.01a23.34 23.34 0 00-.971-1.04c-.94-.895-1.635-1.342-2.082-1.342a.623.623 0 00-.409.107l.003-.002a.607.607 0 00-.127.463v-.003a9.909 9.909 0 00-.03 1.11v-.013.917a.617.617 0 01-.21.6h-.001a2.517 2.517 0 01-1.28.212h.01a6.59 6.59 0 01-3.385-1.003l.028.016a9.445 9.445 0 01-2.942-2.791l-.022-.033a20.869 20.869 0 01-1.956-3.16l-.055-.123a19.523 19.523 0 01-.977-2.218l-.047-.146a5.261 5.261 0 01-.245-1.215l-.002-.02c0-.4.235-.6.706-.6H8.79a.838.838 0 01.585.178l-.001-.002c.158.174.275.387.333.624l.002.01c.383 1.082.79 1.99 1.257 2.861l-.053-.108a11.52 11.52 0 001.284 2.04l-.018-.025c.423.518.752.777.988.777l.026.001a.316.316 0 00.274-.158l.001-.002a1.413 1.413 0 00.088-.623v.005-3.071a2.542 2.542 0 00-.253-1.003l.006.015a2.339 2.339 0 00-.356-.55l.002.003a.87.87 0 01-.246-.49v-.005c0-.134.06-.256.158-.335a.537.537 0 01.364-.142h3.289a.502.502 0 01.443.176v.001a1.078 1.078 0 01.126.604v-.004 4.095a.776.776 0 00.108.462l-.002-.002a.32.32 0 00.264.14.752.752 0 00.374-.128l-.003.002c.216-.148.4-.317.562-.508l.003-.004c.48-.543.924-1.143 1.31-1.78l.03-.056a17.47 17.47 0 00.834-1.578l.05-.116.353-.707a.888.888 0 01.839-.601h.045-.003 2.083c.563 0 .774.26.634.777h-.001z" fill="#fff"/></svg>