<svg width="32" height="32" fill="none" xmlns="http://www.w3.org/2000/svg"><circle cx="16" cy="16" r="16" fill="#5C9C9A"/><g clip-path="url(#clip0_207_321)"><path fill-rule="evenodd" clip-rule="evenodd" d="M22.03 19.415c-.229.648-1.14 1.184-1.865 1.341-.497.106-1.145.189-3.328-.716-2.452-1.015-5.857-4.634-5.857-7.042 0-1.226.707-2.653 1.943-2.653.595 0 .726.011.922.48.229.554.787 1.916.854 2.056.274.573-.28.909-.681 1.407-.129.15-.274.313-.112.592.162.274.72 1.184 1.541 1.915 1.06.945 1.92 1.246 2.228 1.375.23.095.503.072.67-.106.212-.23.475-.61.743-.984.189-.268.43-.301.681-.206.17.059 2.331 1.063 2.422 1.223.068.117.068.67-.161 1.318zM16.502 6h-.005C11.26 6 7 10.261 7 15.5c0 2.077.67 4.005 1.809 5.568l-1.184 3.53 3.651-1.167A9.426 9.426 0 0016.502 25C21.739 25 26 20.739 26 15.5S21.74 6 16.502 6z" fill="#fff"/></g><defs><clipPath id="clip0_207_321"><path fill="#fff" transform="translate(7 6)" d="M0 0h19v19H0z"/></clipPath></defs></svg>