<svg width="115" height="115" fill="none" xmlns="http://www.w3.org/2000/svg"><path d="M33.313 72.585S8.633 67.31 8.211 67.392c-.422.08-5.364 5.022-5.193 5.786.17.772 21.787 12.174 21.787 12.174l6.208-6.55 2.3-6.217zm-3.405 17.447s11.994 20.763 12.506 20.763c.513 0 6.038-4.258 6.038-4.681 0-.422-5.103-25.183-5.103-25.183l-8.769 1.024-4.672 8.077z" fill="#006CA8"/><path d="M20.475 23.162s-1.725 1.95-2.094 2.641c-.368.692-.43 1.878.36 2.3.79.422 1.752.135 2.228-.395.476-.53 2.82-3.414 2.82-3.414S20.682 23 20.476 23.162zm12.595 7.052s-1.392 1.654-1.958 2.408c-.548.728-.539 1.869.225 2.408 1.096.773 2.183-.09 2.776-.728.548-.593 2.093-2.408 2.093-2.408l-3.135-1.68zm11.924 6.416s-1.823 1.823-2.362 2.551c-.602.8-.737 1.968.09 2.596.907.683 1.913.369 2.73-.368.818-.728 2.642-2.731 2.642-2.731l-3.1-2.049zm31.472 30.798s-2.138 1.482-2.668 2.057c-.521.575-.872 1.725-.198 2.327.665.602 1.671.548 2.264.153.593-.395 3.558-2.633 3.558-2.633s-2.713-2.003-2.956-1.904zm7.206 11.284s-1.77 1.24-2.506 1.824c-.72.566-.998 1.67-.396 2.39.854 1.024 2.139.476 2.866.009.683-.432 2.642-1.797 2.642-1.797l-2.606-2.426zm6.593 11.536s-2.2 1.33-2.91 1.905c-.773.638-1.187 1.734-.53 2.542.718.88 1.77.809 2.74.306.97-.503 3.216-2.013 3.216-2.013l-2.516-2.74zM51.453 21.32s-.315-2.094 1.383-4.457c1.698-2.362 7.331-7.879 8.203-7.924.871-.045 2.956 1.06 5.05 3.118 1.994 1.95 2.92 4.456 2.955 5.05.036.592-3.9 4.491-4.923 5.435-1.025.943-3.783 4.016-3.783 4.016l-8.885-5.238z" fill="#9A9A9A"/><path d="M54.023 21.634s6.9-8.436 8.751-7.17c1.869 1.277-5.597 8.518-5.597 8.518l-3.154-1.348z" fill="#C8C8C8"/><path d="M52.441 21.095s3.908-3.962 4.34-4.59c.43-.63.035-1.573-.315-2.094-.35-.512-.89-.71-.89-.71s-2.758 2.47-3.701 4.636c-.737 1.68-.611 2.534-.611 2.534l1.177.224zm6.731 2.04s1.482-1.537 2.228-2.148c.674-.547 1.671-.494 2.264-.143.764.449.943 1.222.943 1.222l-2.749 2.92-2.686-1.851z" fill="#848484"/><path d="M91.606 53.412s2.255-2.623 3.566-3.935c1.357-1.357 3.567-3.198 4.016-3.162.45.044 2.435 1.248 4.304 3.162 2.129 2.174 3.45 4.879 3.486 5.13.045.243-3.935 4.223-5.705 5.741-1.267 1.087-9.146 4.304-9.146 3.9.017-.414-.521-10.836-.521-10.836z" fill="#9A9A9A"/><path d="M92.908 58.488s6.523-7.151 8.014-5.813c1.492 1.34-7.466 9.39-7.466 9.39l-.548-3.577z" fill="#C8C8C8"/><path d="M92.423 56.691l2.38-2.623c.845-.925.791-2.165.54-2.704-.324-.692-1.16-.854-1.16-.854l-3.099 3.297 1.339 2.884zm2.254 5.939s3.738-3.37 4.376-3.9c.638-.53 1.671-.907 2.488-.34.611.422.881.934.881.934s-2.875 3.126-4.61 4.232c-1.086.691-3.656 1.087-3.656 1.087l.521-2.013z" fill="#848484"/><path d="M10.467 8.014c-.88.072-6.46 6.667-6.658 7.152-.198.485 0 1.275 1.375 1.958 1.365.683 39.953 21.06 40.546 21.545.584.494 8.23 9.011 8.23 9.011s18.903-13.027 18.804-13.414c-.099-.395-.683-8.517-.683-8.517S11.742 7.915 10.467 8.014zm55.146 51.13S77.167 69.62 78.147 70.896c.979 1.276 20.96 37.707 21.256 38.291.297.584 1.564 1.078 2.256.396.691-.683 5.875-5.193 5.974-6.272.099-1.078-19.2-63.268-19.2-63.268l-14.887 5.391-7.933 13.71z" fill="#006CA8"/><path d="M60.024 38.867s-9.11-8.814-9.793-9.308c-.683-.485-43.385-18.113-43.385-18.113l-1.752 1.932S48.38 31.66 49.072 32.146c.692.485 9.164 9.164 9.164 9.164l1.788-2.443zM74.031 54.31S84.067 66.638 84.67 67.438c.602.8 18.202 41.013 18.202 41.013l1.752-1.635S87.041 65.784 86.726 65.227c-.314-.558-12.003-15.004-12.003-15.004l-.692 4.087z" fill="#014EAC"/><path d="M21.76 88.406s-3.756 5.373-3.756 5.795c0 .431 2.515 3.18 2.803 3.18.288 0 5.75-3.899 5.75-3.899l-.764-3.899-4.034-1.177z" fill="#9A9A9A"/><path d="M21.76 88.406s7.439-12.515 15.408-23.7c8.185-11.492 14.824-18.113 25.03-29.218 12.803-13.926 21.33-21.814 29.218-27.124C97.956 3.962 107.3.98 110.633 3.953c3.657 3.27-.377 13.584-4.483 19.46-9.317 13.333-17.313 19.676-26.486 28.58-9.047 8.777-16.693 16.396-26.162 23.503C47.122 80.284 26.548 93.5 26.548 93.5l-4.788-5.094z" fill="#C8C8C8"/><path d="M93.365 9.928l2.489 2.623s4.169-4.016 7.286-1.024c3.199 3.064-1.213 7.412-1.213 7.412l2.687 3s7.286-8.247 1.338-13.61c-5.175-4.672-12.587 1.599-12.587 1.599z" fill="#3B5361"/><path d="M42.98 66.484c-1.158 1.114-14.85 17.322-15.614 18.284-.98 1.24-1.429 2.73-.323 3.647 1.105.908 2.3.01 3.387-.719 1.365-.907 17.232-14.905 18.283-15.875 1.689-1.563 1.976-4.384.197-5.983-1.958-1.761-4.168-1.043-5.93.646z" fill="#9A9A9A"/><path d="M42.487 62.81c-.782-.674-1.752-.225-2.776.88-.88.962-1.285 2.453-.405 3.055.88.602 2.049-.279 2.777-1.168.727-.88 1.284-2.003.404-2.767zm2.533-5.23c-.808.926-1.985 2.454-.88 3.54 1.087 1.07 2.731-.287 3.45-1.095.71-.809 8.84-10.35 19.127-20.628C76.763 29.352 83.519 23 84.561 21.886c.88-.943.8-2.444.026-2.92-.916-.566-1.931-.207-3.189 1.051s-9.793 9.065-17.843 17.205c-8.05 8.14-17.529 19.2-18.535 20.359z" fill="#DFDFDF"/><path d="M94.759 37.384s-.495-3.342-2.57-2.03c-2.228 1.41-.566 5.237-.566 5.237s.836-.781 1.725-1.716c.737-.763 1.168-1.213 1.41-1.491zm-7.971 7.861s-.35-4.285-2.704-2.524c-1.878 1.41-.602 5.624-.602 5.624s1.078-.98 1.779-1.644c.71-.674 1.527-1.456 1.527-1.456zm-7.6 7.205s-.27-3.557-2.381-2.38c-2.112 1.177-.701 5.382-.701 5.382s.934-.845 1.563-1.474a459 459 0 001.519-1.527zm-8.606 8.32s-.161-3.54-2.237-2.596c-2.156.98-.862 5.516-.862 5.516s1.05-.979 1.635-1.527c.593-.539 1.464-1.392 1.464-1.392z" fill="#3B5361"/></svg>