<svg width="24" height="24" fill="none" xmlns="http://www.w3.org/2000/svg"><g clip-path="url(#clip0_208_385)"><path d="M22.567 19.67a7.38 7.38 0 01.572-2.113l.259-.539-.598.007c-.008 0-.65.004-1.367-.263-.839-.312-1.42-.851-1.735-1.603a4.373 4.373 0 00.887-2.644 4.4 4.4 0 00-5.352-4.291c-.145-.65-.048-1.324.292-2.01.313-.632.724-1.037.727-1.04l.432-.42-.567-.198c-.038-.013-3.73-1.342-3.73-4.556h-.825c0 1.332-.617 2.498-1.832 3.467a7.382 7.382 0 01-1.898 1.09l-.564.197.427.419c.015.014 1.382 1.375 1.023 3.04a4.396 4.396 0 00-4.415 6.947c-.316.756-.903 1.296-1.75 1.608a4.242 4.242 0 01-1.35.257l-.602-.01.26.542c.018.036 1.689 3.587-.584 5.86l.525.524.06.059c.94-.942 2.201-1.331 3.746-1.156a7.38 7.38 0 012.112.572l.542.26-.01-.6c0-.016-.012-1.507.962-2.496.573-.581 1.384-.877 2.41-.878a4.38 4.38 0 002.752 0c1.024 0 1.834.295 2.407.874.971.982.966 2.485.966 2.5l-.01.6.542-.26c.035-.018 3.586-1.689 5.859.584l.058-.059.526-.525c-.942-.942-1.331-2.202-1.157-3.747zM16.19 8.86a3.657 3.657 0 013.654 3.654 3.657 3.657 0 01-3.493 3.65 4.403 4.403 0 00-3.57-4.965 3.647 3.647 0 013.41-2.339zM8.57 5.05a8.28 8.28 0 001.605-.989c.852-.674 1.458-1.461 1.8-2.326.343.865.949 1.652 1.8 2.326.603.477 1.202.8 1.605.988-.479.622-1.224 1.889-.857 3.396a4.388 4.388 0 00-2.201 1.977v-6.51h-.743v6.333A4.407 4.407 0 009.43 8.428c.357-1.5-.384-2.759-.86-3.378zm-4.41 7.464A3.657 3.657 0 017.81 8.86c1.523 0 2.873.944 3.41 2.339a4.403 4.403 0 00-3.57 4.964 3.658 3.658 0 01-3.493-3.65zm3.526 7.544c-.796.809-1.053 1.858-1.136 2.486a8.29 8.29 0 00-1.834-.437c-1.08-.125-2.064.003-2.918.372.369-.854.497-1.838.372-2.917a8.286 8.286 0 00-.437-1.835 5.099 5.099 0 001.051-.254c.933-.337 1.635-.926 2.059-1.721a4.39 4.39 0 002.06 1.063l-3.847 3.846.525.525 4.255-4.255c.297.877.863 1.63 1.6 2.161-.695.168-1.28.49-1.75.966zM12 19.18a3.657 3.657 0 01-3.653-3.653A3.657 3.657 0 0112 11.873a3.658 3.658 0 013.654 3.653A3.658 3.658 0 0112 19.18zm10.204 3.302c-.854-.37-1.839-.498-2.918-.373a8.282 8.282 0 00-1.834.437c-.083-.628-.34-1.677-1.136-2.486a3.586 3.586 0 00-1.75-.966 4.417 4.417 0 001.6-2.16l4.254 4.254.525-.525-3.846-3.846a4.387 4.387 0 002.06-1.062c.42.789 1.116 1.376 2.04 1.714.403.147.781.222 1.07.26a8.29 8.29 0 00-.437 1.835c-.125 1.079.003 2.064.372 2.918z" fill="#7054AF"/></g><defs><clipPath id="clip0_208_385"><path fill="#fff" d="M0 0h24v24H0z"/></clipPath></defs></svg>